{
  "accessors": [
    {
      "bufferView": 2,
      "componentType": 5126,
      "count": 284,
      "max": [
        3.479279041290283,
        3.4598729610443115,
        0.08795011043548584
      ],
      "min": [
        -3.50862717628479,
        -3.4598686695098877,
        -17.880884170532227
      ],
      "type": "VEC3"
    },
    {
      "bufferView": 2,
      "byteOffset": 3408,
      "componentType": 5126,
      "count": 284,
      "max": [
        1.0,
        1.0,
        1.0
      ],
      "min": [
        -0.9807004332542419,
        -1.0,
        -1.0
      ],
      "type": "VEC3"
    },
    {
      "bufferView": 3,
      "componentType": 5126,
      "count": 284,
      "max": [
        1.0,
        1.0,
        1.0,
        1.0
      ],
      "min": [
        -1.0,
        -1.0,
        -1.0,
        1.0
      ],
      "type": "VEC4"
    },
    {
      "bufferView": 1,
      "componentType": 5126,
      "count": 284,
      "max": [
        0.9920634031295776,
        0.9829288125038147
      ],
      "min": [
        0.007934542372822762,
        0.007937566377222538
      ],
      "type": "VEC2"
    },
    {
      "bufferView": 0,
      "componentType": 5125,
      "count": 948,
      "type": "SCALAR"
    },
    {
      "bufferView": 2,
      "byteOffset": 6816,
      "componentType": 5126,
      "count": 997,
      "max": [
        4.769308090209961,
        3.1620473861694336,
        4.012042045593262
      ],
      "min": [
        -1.765761375427246,
        -3.1620473861694336,
        -13.797011375427246
      ],
      "type": "VEC3"
    },
    {
      "bufferView": 2,
      "byteOffset": 18780,
      "componentType": 5126,
      "count": 997,
      "max": [
        1.0,
        1.0,
        1.0
      ],
      "min": [
        -1.0,
        -1.0,
        -1.0
      ],
      "type": "VEC3"
    },
    {
      "bufferView": 3,
      "byteOffset": 4544,
      "componentType": 5126,
      "count": 997,
      "max": [
        1.0,
        1.0,
        1.0,
        1.0
      ],
      "min": [
        -0.9999822974205017,
        -1.0,
        -1.0,
        1.0
      ],
      "type": "VEC4"
    },
    {
      "bufferView": 1,
      "byteOffset": 2272,
      "componentType": 5126,
      "count": 997,
      "max": [
        0.9890125393867493,
        0.9921201467514038
      ],
      "min": [
        0.00741063617169857,
        0.007414790336042643
      ],
      "type": "VEC2"
    },
    {
      "bufferView": 0,
      "byteOffset": 3792,
      "componentType": 5125,
      "count": 3336,
      "type": "SCALAR"
    },
    {
      "bufferView": 2,
      "byteOffset": 30744,
      "componentType": 5126,
      "count": 20,
      "max": [
        0.24104365706443787,
        2.3026955127716064,
        3.4009532928466797
      ],
      "min": [
        -0.7053065299987793,
        -2.3026955127716064,
        -0.9787369966506958
      ],
      "type": "VEC3"
    },
    {
      "bufferView": 2,
      "byteOffset": 30984,
      "componentType": 5126,
      "count": 20,
      "max": [
        -0.977430522441864,
        7.918885103208595e-08,
        -0.21125724911689758
      ],
      "min": [
        -0.977430522441864,
        7.918885103208595e-08,
        -0.21125724911689758
      ],
      "type": "VEC3"
    },
    {
      "bufferView": 3,
      "byteOffset": 20496,
      "componentType": 5126,
      "count": 20,
      "max": [
        3.9489339087595e-07,
        -1.0,
        1.363780211249832e-05,
        1.0
      ],
      "min": [
        -3.0286278160929214e-06,
        -1.0,
        -2.201911229349207e-06,
        1.0
      ],
      "type": "VEC4"
    },
    {
      "bufferView": 1,
      "byteOffset": 10248,
      "componentType": 5126,
      "count": 20,
      "max": [
        0.9921702146530151,
        0.9921530485153198
      ],
      "min": [
        0.007829908281564713,
        0.007812658324837685
      ],
      "type": "VEC2"
    },
    {
      "bufferView": 0,
      "byteOffset": 17136,
      "componentType": 5125,
      "count": 54,
      "type": "SCALAR"
    },
    {
      "bufferView": 2,
      "byteOffset": 31224,
      "componentType": 5126,
      "count": 20,
      "max": [
        0.42168378829956055,
        0.0648658275604248,
        0.3144073486328125
      ],
      "min": [
        -0.42168378829956055,
        -0.06379079818725586,
        -0.3144073486328125
      ],
      "type": "VEC3"
    },
    {
      "bufferView": 2,
      "byteOffset": 31464,
      "componentType": 5126,
      "count": 20,
      "max": [
        0.0,
        0.9999110102653503,
        1.0
      ],
      "min": [
        -1.0,
        -0.9999507665634155,
        -1.0
      ],
      "type": "VEC3"
    },
    {
      "bufferView": 3,
      "byteOffset": 20816,
      "componentType": 5126,
      "count": 20,
      "max": [
        1.0,
        1.0,
        2.3577806018693082e-07,
        1.0
      ],
      "min": [
        -5.895051344850799e-07,
        -1.0,
        -0.9999507665634155,
        1.0
      ],
      "type": "VEC4"
    },
    {
      "bufferView": 1,
      "byteOffset": 10408,
      "componentType": 5126,
      "count": 20,
      "max": [
        0.920775294303894,
        0.9892735481262207
      ],
      "min": [
        0.43484455347061157,
        0.007285214029252529
      ],
      "type": "VEC2"
    },
    {
      "bufferView": 0,
      "byteOffset": 17352,
      "componentType": 5125,
      "count": 30,
      "type": "SCALAR"
    },
    {
      "bufferView": 2,
      "byteOffset": 31704,
      "componentType": 5126,
      "count": 32,
      "max": [
        0.4216839075088501,
        0.11821497231721878,
        0.11821496486663818
      ],
      "min": [
        -0.4216839373111725,
        -0.11821497976779938,
        -0.11821496486663818
      ],
      "type": "VEC3"
    },
    {
      "bufferView": 2,
      "byteOffset": 32088,
      "componentType": 5126,
      "count": 32,
      "max": [
        2.9724057881708177e-08,
        1.0,
        1.0
      ],
      "min": [
        -1.0,
        -1.0,
        -1.0
      ],
      "type": "VEC3"
    },
    {
      "bufferView": 3,
      "byteOffset": 21136,
      "componentType": 5126,
      "count": 32,
      "max": [
        1.0,
        0.3826838731765747,
        2.6750862502922246e-07,
        1.0
      ],
      "min": [
        -1.0,
        -3.8286964354483644e-07,
        -0.9238797426223755,
        1.0
      ],
      "type": "VEC4"
    },
    {
      "bufferView": 1,
      "byteOffset": 10568,
      "componentType": 5126,
      "count": 32,
      "max": [
        0.9696694016456604,
        0.9883730411529541
      ],
      "min": [
        0.007285103667527437,
        0.6416834592819214
      ],
      "type": "VEC2"
    },
    {
      "bufferView": 0,
      "byteOffset": 17472,
      "componentType": 5125,
      "count": 66,
      "type": "SCALAR"
    },
    {
      "bufferView": 2,
      "byteOffset": 32472,
      "componentType": 5126,
      "count": 20,
      "max": [
        0.42168378829956055,
        0.06379091739654541,
        0.3144073486328125
      ],
      "min": [
        -0.42168378829956055,
        -0.06486570835113525,
        -0.3144073486328125
      ],
      "type": "VEC3"
    },
    {
      "bufferView": 2,
      "byteOffset": 32712,
      "componentType": 5126,
      "count": 20,
      "max": [
        0.0,
        0.9999507665634155,
        1.0
      ],
      "min": [
        -1.0,
        -0.9999110102653503,
        -1.0
      ],
      "type": "VEC3"
    },
    {
      "bufferView": 3,
      "byteOffset": 21648,
      "componentType": 5126,
      "count": 20,
      "max": [
        1.0,
        2.9684552593778335e-09,
        0.009927762672305107,
        1.0
      ],
      "min": [
        -1.0,
        -0.9999508261680603,
        -3.5366934980629594e-07,
        1.0
      ],
      "type": "VEC4"
    },
    {
      "bufferView": 1,
      "byteOffset": 10824,
      "componentType": 5126,
      "count": 20,
      "max": [
        0.992685854434967,
        0.919279932975769
      ],
      "min": [
        0.007285177707672119,
        0.007286669220775366
      ],
      "type": "VEC2"
    },
    {
      "bufferView": 0,
      "byteOffset": 17736,
      "componentType": 5125,
      "count": 30,
      "type": "SCALAR"
    },
    {
      "bufferView": 4,
      "componentType": 5126,
      "count": 281,
      "max": [
        5.833333492279053
      ],
      "min": [
        0.0
      ],
      "type": "SCALAR"
    },
    {
      "bufferView": 5,
      "componentType": 5126,
      "count": 281,
      "max": [
        308.2383728027344,
        360.1487731933594,
        -160.72369384765625
      ],
      "min": [
        308.2383728027344,
        11.73102855682373,
        -493.2370300292969
      ],
      "type": "VEC3"
    },
    {
      "bufferView": 4,
      "byteOffset": 1124,
      "componentType": 5126,
      "count": 278,
      "max": [
        5.833333492279053
      ],
      "min": [
        0.0
      ],
      "type": "SCALAR"
    },
    {
      "bufferView": 5,
      "byteOffset": 3372,
      "componentType": 5126,
      "count": 278,
      "max": [
        308.2383728027344,
        287.191162109375,
        -143.55499267578125
      ],
      "min": [
        308.2383728027344,
        11.136817932128906,
        -143.55499267578125
      ],
      "type": "VEC3"
    },
    {
      "bufferView": 4,
      "byteOffset": 2236,
      "componentType": 5126,
      "count": 281,
      "max": [
        5.833333492279053
      ],
      "min": [
        0.0
      ],
      "type": "SCALAR"
    },
    {
      "bufferView": 5,
      "byteOffset": 6708,
      "componentType": 5126,
      "count": 281,
      "max": [
        308.2383728027344,
        277.5723571777344,
        -510.7409362792969
      ],
      "min": [
        308.2383728027344,
        14.344802856445313,
        -510.7409362792969
      ],
      "type": "VEC3"
    }
  ],
  "animations": [
    {
      "channels": [
        {
          "sampler": 0,
          "target": {
            "node": 12,
            "path": "translation"
          }
        }
      ],
      "name": "Ball",
      "samplers": [
        {
          "input": 30,
          "interpolation": "LINEAR",
          "output": 31
        }
      ]
    },
    {
      "channels": [
        {
          "sampler": 0,
          "target": {
            "node": 10,
            "path": "translation"
          }
        }
      ],
      "name": "Right",
      "samplers": [
        {
          "input": 32,
          "interpolation": "LINEAR",
          "output": 33
        }
      ]
    },
    {
      "channels": [
        {
          "sampler": 0,
          "target": {
            "node": 14,
            "path": "translation"
          }
        }
      ],
      "name": "Left",
      "samplers": [
        {
          "input": 34,
          "interpolation": "LINEAR",
          "output": 35
        }
      ]
    }
  ],
  "asset": {
    "extras": {
      "author": "Batuhan13 (https://sketchfab.com/Batuhan13)",
      "license": "CC-BY-4.0 (http://creativecommons.org/licenses/by/4.0/)",
      "source": "https://sketchfab.com/3d-models/pong-arcade-cabin-1f0f0d21ea5e4f8dbc415acde9997696",
      "title": "Pong Arcade Cabin"
    },
    "generator": "Sketchfab-12.65.0",
    "version": "2.0"
  },
  "bufferViews": [
    {
      "buffer": 0,
      "byteLength": 17856,
      "name": "floatBufferViews",
      "target": 34963
    },
    {
      "buffer": 0,
      "byteLength": 10984,
      "byteOffset": 17856,
      "byteStride": 8,
      "name": "floatBufferViews",
      "target": 34962
    },
    {
      "buffer": 0,
      "byteLength": 32952,
      "byteOffset": 28840,
      "byteStride": 12,
      "name": "floatBufferViews",
      "target": 34962
    },
    {
      "buffer": 0,
      "byteLength": 21968,
      "byteOffset": 61792,
      "byteStride": 16,
      "name": "floatBufferViews",
      "target": 34962
    },
    {
      "buffer": 0,
      "byteLength": 3360,
      "byteOffset": 83760,
      "name": "floatBufferViews"
    },
    {
      "buffer": 0,
      "byteLength": 10080,
      "byteOffset": 87120,
      "byteStride": 12,
      "name": "floatBufferViews"
    }
  ],
  "buffers": [
    {
      "byteLength": 97200,
      "uri": "scene.bin"
    }
  ],
  "extensionsUsed": [
    "KHR_materials_transmission"
  ],
  "images": [
    {
      "uri": "textures/OutCase_baseColor.png"
    },
    {
      "uri": "textures/OutCase_metallicRoughness.png"
    },
    {
      "uri": "textures/OutCase_normal.png"
    },
    {
      "uri": "textures/InnerCase_baseColor.png"
    },
    {
      "uri": "textures/InnerCase_metallicRoughness.png"
    },
    {
      "uri": "textures/InnerCase_emissive.png"
    },
    {
      "uri": "textures/InnerCase_normal.png"
    },
    {
      "uri": "textures/Glass_baseColor.png"
    },
    {
      "uri": "textures/Glass_metallicRoughness.png"
    },
    {
      "uri": "textures/Glass_normal.png"
    },
    {
      "uri": "textures/MovementObjects_emissive.png"
    },
    {
      "uri": "textures/MovementObjects_normal.png"
    }
  ],
  "materials": [
    {
      "doubleSided": true,
      "name": "OutCase",
      "normalTexture": {
        "index": 2
      },
      "pbrMetallicRoughness": {
        "baseColorTexture": {
          "index": 0
        },
        "metallicRoughnessTexture": {
          "index": 1
        },
        "roughnessFactor": 0.42590910015684186
      }
    },
    {
      "doubleSided": true,
      "emissiveFactor": [
        1.0,
        1.0,
        1.0
      ],
      "emissiveTexture": {
        "index": 5
      },
      "name": "InnerCase",
      "normalTexture": {
        "index": 6
      },
      "pbrMetallicRoughness": {
        "baseColorTexture": {
          "index": 3
        },
        "metallicRoughnessTexture": {
          "index": 4
        },
        "roughnessFactor": 0.3956060698538115
      }
    },
    {
      "alphaMode": "BLEND",
      "doubleSided": true,
      "extensions": {
        "KHR_materials_transmission": {
          "transmissionFactor": 0.6528787786310369
        }
      },
      "name": "Glass",
      "normalTexture": {
        "index": 9
      },
      "pbrMetallicRoughness": {
        "baseColorFactor": [
          1.0,
          1.0,
          1.0,
          0.34712122136896306
        ],
        "baseColorTexture": {
          "index": 7
        },
        "metallicRoughnessTexture": {
          "index": 8
        }
      }
    },
    {
      "doubleSided": true,
      "emissiveFactor": [
        1.0,
        1.0,
        1.0
      ],
      "emissiveTexture": {
        "index": 10
      },
      "name": "MovementObjects",
      "normalTexture": {
        "index": 11
      },
      "pbrMetallicRoughness": {
        "baseColorFactor": [
          0.8,
          0.8,
          0.8,
          1.0
        ],
        "metallicFactor": 0.0,
        "roughnessFactor": 0.8211145618000169
      }
    }
  ],
  "meshes": [
    {
      "name": "OutCase_OutCase_0",
      "primitives": [
        {
          "attributes": {
            "NORMAL": 1,
            "POSITION": 0,
            "TANGENT": 2,
            "TEXCOORD_0": 3
          },
          "indices": 4,
          "material": 0,
          "mode": 4
        }
      ]
    },
    {
      "name": "InnerCase_InnerCase_0",
      "primitives": [
        {
          "attributes": {
            "NORMAL": 6,
            "POSITION": 5,
            "TANGENT": 7,
            "TEXCOORD_0": 8
          },
          "indices": 9,
          "material": 1,
          "mode": 4
        }
      ]
    },
    {
      "name": "Glass_Glass_0",
      "primitives": [
        {
          "attributes": {
            "NORMAL": 11,
            "POSITION": 10,
            "TANGENT": 12,
            "TEXCOORD_0": 13
          },
          "indices": 14,
          "material": 2,
          "mode": 4
        }
      ]
    },
    {
      "name": "MovementObjects.001_MovementObjects_0",
      "primitives": [
        {
          "attributes": {
            "NORMAL": 16,
            "POSITION": 15,
            "TANGENT": 17,
            "TEXCOORD_0": 18
          },
          "indices": 19,
          "material": 3,
          "mode": 4
        }
      ]
    },
    {
      "name": "MovementObjects.002_MovementObjects_0",
      "primitives": [
        {
          "attributes": {
            "NORMAL": 21,
            "POSITION": 20,
            "TANGENT": 22,
            "TEXCOORD_0": 23
          },
          "indices": 24,
          "material": 3,
          "mode": 4
        }
      ]
    },
    {
      "name": "MovementObjects.003_MovementObjects_0",
      "primitives": [
        {
          "attributes": {
            "NORMAL": 26,
            "POSITION": 25,
            "TANGENT": 27,
            "TEXCOORD_0": 28
          },
          "indices": 29,
          "material": 3,
          "mode": 4
        }
      ]
    }
  ],
  "nodes": [
    {
      "children": [
        1
      ],
      "matrix": [
        1.0,
        0.0,
        0.0,
        0.0,
        0.0,
        2.220446049250313e-16,
        -1.0,
        0.0,
        0.0,
        1.0,
        2.220446049250313e-16,
        0.0,
        0.0,
        0.0,
        0.0,
        1.0
      ],
      "name": "Sketchfab_model"
    },
    {
      "children": [
        2
      ],
      "matrix": [
        1.0,
        0.0,
        0.0,
        0.0,
        0.0,
        0.0,
        1.0,
        0.0,
        0.0,
        -1.0,
        0.0,
        0.0,
        0.0,
        0.0,
        0.0,
        1.0
      ],
      "name": "ArcadeCabin.fbx"
    },
    {
      "children": [
        3
      ],
      "name": "Object_2"
    },
    {
      "children": [
        4,
        6,
        8,
        10,
        12,
        14
      ],
      "name": "RootNode"
    },
    {
      "children": [
        5
      ],
      "name": "OutCase",
      "rotation": [
        -0.7071068286895752,
        0.0,
        0.0,
        0.7071067094802856
      ],
      "scale": [
        100.0,
        100.0,
        100.0
      ],
      "translation": [
        358.8192138671875,
        471.54779052734375,
        -327.1479187011719
      ]
    },
    {
      "mesh": 0,
      "name": "OutCase_OutCase_0"
    },
    {
      "children": [
        7
      ],
      "name": "InnerCase",
      "rotation": [
        -0.7071068286895752,
        0.0,
        0.0,
        0.7071067094802856
      ],
      "scale": [
        100.0,
        100.0,
        100.0
      ],
      "translation": [
        200.2918243408203,
        63.16041946411133,
        -327.1479797363281
      ]
    },
    {
      "mesh": 1,
      "name": "InnerCase_InnerCase_0"
    },
    {
      "children": [
        9
      ],
      "name": "Glass",
      "rotation": [
        -0.7071068286895752,
        0.0,
        0.0,
        0.7071067094802856
      ],
      "scale": [
        100.0,
        100.0,
        100.0
      ],
      "translation": [
        200.2918243408203,
        63.16041946411133,
        -327.1479797363281
      ]
    },
    {
      "mesh": 2,
      "name": "Glass_Glass_0"
    },
    {
      "children": [
        11
      ],
      "name": "MovementObjects.001",
      "rotation": [
        -0.7071068286895752,
        0.0,
        0.0,
        0.7071067094802856
      ],
      "scale": [
        100.0,
        100.0,
        100.0
      ],
      "translation": [
        308.2383728027344,
        155.70970153808594,
        -143.55499267578125
      ]
    },
    {
      "mesh": 3,
      "name": "MovementObjects.001_MovementObjects_0"
    },
    {
      "children": [
        13
      ],
      "name": "MovementObjects.002",
      "rotation": [
        -0.7071068286895752,
        0.0,
        0.0,
        0.7071067094802856
      ],
      "scale": [
        100.0,
        100.0,
        100.0
      ],
      "translation": [
        308.2383728027344,
        124.26897430419922,
        -327.14801025390625
      ]
    },
    {
      "mesh": 4,
      "name": "MovementObjects.002_MovementObjects_0"
    },
    {
      "children": [
        15
      ],
      "name": "MovementObjects.003",
      "rotation": [
        -0.7071068286895752,
        0.0,
        0.0,
        0.7071067094802856
      ],
      "scale": [
        100.0,
        100.0,
        100.0
      ],
      "translation": [
        308.2383728027344,
        155.70970153808594,
        -510.7409362792969
      ]
    },
    {
      "mesh": 5,
      "name": "MovementObjects.003_MovementObjects_0"
    }
  ],
  "samplers": [
    {
      "magFilter": 9729,
      "minFilter": 9987,
      "wrapS": 10497,
      "wrapT": 10497
    }
  ],
  "scene": 0,
  "scenes": [
    {
      "name": "Sketchfab_Scene",
      "nodes": [
        0
      ]
    }
  ],
  "textures": [
    {
      "sampler": 0,
      "source": 0
    },
    {
      "sampler": 0,
      "source": 1
    },
    {
      "sampler": 0,
      "source": 2
    },
    {
      "sampler": 0,
      "source": 3
    },
    {
      "sampler": 0,
      "source": 4
    },
    {
      "sampler": 0,
      "source": 5
    },
    {
      "sampler": 0,
      "source": 6
    },
    {
      "sampler": 0,
      "source": 7
    },
    {
      "sampler": 0,
      "source": 8
    },
    {
      "sampler": 0,
      "source": 9
    },
    {
      "sampler": 0,
      "source": 10
    },
    {
      "sampler": 0,
      "source": 11
    }
  ]
}
